<svg xmlns="http://www.w3.org/2000/svg" width="800" height="800" fill="#003699" viewBox="0 0 24 24"><path d="M20 4a2.984 2.984 0 0 0-1.116.22 2.961 2.961 0 0 0-4.355-1.82 2.983 2.983 0 0 0-5.058 0A2.967 2.967 0 0 0 8 2a3 3 0 0 0-3 3v3.026A4.948 4.948 0 0 0 2 7a1 1 0 0 0-1 1v6a9.01 9.01 0 0 0 9 9h4a9.01 9.01 0 0 0 9-9V8c0-2.949-1.55-4-3-4Zm1 10a7.009 7.009 0 0 1-7 7h-4a7.009 7.009 0 0 1-7-7V9.171A3.006 3.006 0 0 1 5 12a1 1 0 0 0 2 0V5a1 1 0 0 1 2 0v5a1 1 0 0 0 2 0V4a1 1 0 0 1 2 0v6a1 1 0 0 0 2 0V5a1 1 0 0 1 2 0v5a1 1 0 0 0 2 0V7a1 1 0 0 1 1-1c.9 0 1 1.4 1 2Z"/></svg>